<svg width="500" height="520" viewBox="0 0 500 520" xmlns="http://www.w3.org/2000/svg">
  <path d="M0 0 L460 0 Q500 0 500 40 L500 480 Q500 520 460 520 L40 520 Q0 520 0 480 Z" fill="#fff8ea" opacity="0.85"/>
  <line x1="60" y1="120" x2="200" y2="120" stroke="#D4B96A" stroke-width="0.8" opacity="0.55"/>
  <line x1="60" y1="140" x2="160" y2="140" stroke="#D4B96A" stroke-width="0.8" opacity="0.4"/>
  <line x1="60" y1="160" x2="220" y2="160" stroke="#D4B96A" stroke-width="0.8" opacity="0.35"/>
  <line x1="80" y1="100" x2="80" y2="260" stroke="#D4B96A" stroke-width="0.8" opacity="0.45"/>
  <line x1="140" y1="80" x2="140" y2="220" stroke="#D4B96A" stroke-width="0.8" opacity="0.35"/>
  <line x1="200" y1="90" x2="200" y2="200" stroke="#D4B96A" stroke-width="0.8" opacity="0.3"/>
  <line x1="80" y1="120" x2="140" y2="160" stroke="#9A8210" stroke-width="0.7" opacity="0.3"/>
  <line x1="140" y1="120" x2="200" y2="160" stroke="#9A8210" stroke-width="0.7" opacity="0.25"/>
  <line x1="80" y1="160" x2="200" y2="120" stroke="#9A8210" stroke-width="0.6" opacity="0.18"/>
  <circle cx="80" cy="120" r="3" fill="#9A8210" opacity="0.4"/>
  <circle cx="140" cy="120" r="2.5" fill="#9A8210" opacity="0.32"/>
  <circle cx="200" cy="120" r="3" fill="#9A8210" opacity="0.35"/>
  <circle cx="80" cy="160" r="2.5" fill="#C4A44A" opacity="0.45"/>
  <circle cx="140" cy="160" r="3" fill="#C4A44A" opacity="0.4"/>
  <circle cx="200" cy="160" r="2.5" fill="#C4A44A" opacity="0.35"/>
  <g transform="translate(260, 200)" opacity="0.28">
    <rect x="-28" y="-8" width="56" height="42" rx="6" fill="none" stroke="#9A8210" stroke-width="1.2"/>
    <path d="M-14 -8 L-14 -18 Q-14 -30 0 -30 Q14 -30 14 -18 L14 -8" fill="none" stroke="#9A8210" stroke-width="1.2"/>
    <circle cx="0" cy="14" r="5" fill="#9A8210" opacity="0.55"/>
    <line x1="0" y1="14" x2="0" y2="24" stroke="#9A8210" stroke-width="1.2" opacity="0.65"/>
  </g>
  <g transform="translate(160, 300)" opacity="0.22">
    <rect x="-22" y="-6" width="44" height="33" rx="5" fill="none" stroke="#B8962E" stroke-width="1"/>
    <path d="M-11 -6 L-11 -14 Q-11 -23 0 -23 Q11 -23 11 -14 L11 -6" fill="none" stroke="#B8962E" stroke-width="1"/>
    <circle cx="0" cy="11" r="3.5" fill="#B8962E" opacity="0.5"/>
  </g>
  <g transform="translate(80, 380)" opacity="0.16">
    <rect x="-18" y="-5" width="36" height="27" rx="4" fill="none" stroke="#C4A44A" stroke-width="0.8"/>
    <path d="M-9 -5 L-9 -11 Q-9 -18 0 -18 Q9 -18 9 -11 L9 -5" fill="none" stroke="#C4A44A" stroke-width="0.8"/>
    <circle cx="0" cy="9" r="3" fill="#C4A44A" opacity="0.45"/>
  </g>
  <path d="M320 60 Q360 80 380 130 Q400 180 360 220 Q330 250 280 240" fill="none" stroke="#9A8210" stroke-width="0.8" opacity="0.22" stroke-dasharray="4 6"/>
  <path d="M420 140 Q440 200 410 260 Q380 310 320 320" fill="none" stroke="#C4A44A" stroke-width="0.8" opacity="0.25" stroke-dasharray="3 5"/>
  <circle cx="340" cy="100" r="4" fill="none" stroke="#9A8210" stroke-width="1" opacity="0.28"/>
  <circle cx="380" cy="180" r="3" fill="#9A8210" opacity="0.22"/>
  <circle cx="320" cy="240" r="4" fill="none" stroke="#C4A44A" stroke-width="1" opacity="0.3"/>
  <rect x="350" y="320" width="60" height="16" rx="3" fill="none" stroke="#D4B96A" stroke-width="0.7" opacity="0.4"/>
  <rect x="360" y="328" width="20" height="6" rx="1.5" fill="#9A8210" opacity="0.28"/>
  <rect x="60" y="420" width="80" height="16" rx="3" fill="none" stroke="#D4B96A" stroke-width="0.7" opacity="0.35"/>
  <rect x="70" y="428" width="28" height="6" rx="1.5" fill="#C4A44A" opacity="0.32"/>
  <circle cx="440" cy="400" r="18" fill="none" stroke="#D4B96A" stroke-width="0.7" opacity="0.35"/>
  <circle cx="440" cy="400" r="10" fill="none" stroke="#9A8210" stroke-width="0.6" opacity="0.25"/>
  <circle cx="440" cy="400" r="3" fill="#9A8210" opacity="0.28"/>
  <g opacity="0.18">
    <line x1="200" y1="280" x2="260" y2="320" stroke="#C4A44A" stroke-width="0.7"/>
    <line x1="260" y1="320" x2="320" y2="300" stroke="#C4A44A" stroke-width="0.7"/>
    <line x1="320" y1="300" x2="380" y2="360" stroke="#C4A44A" stroke-width="0.7"/>
    <circle cx="200" cy="280" r="2.5" fill="#C4A44A"/>
    <circle cx="260" cy="320" r="2.5" fill="#C4A44A"/>
    <circle cx="320" cy="300" r="2.5" fill="#C4A44A"/>
    <circle cx="380" cy="360" r="2.5" fill="#C4A44A"/>
  </g>
</svg>
