<svg width="680" height="600" viewBox="0 0 680 600" xmlns="http://www.w3.org/2000/svg">
  <defs>
    <marker id="rt" viewBox="0 0 10 10" refX="8" refY="5" markerWidth="5" markerHeight="5" orient="auto-start-reverse">
      <path d="M2 1L8 5L2 9" fill="none" stroke="context-stroke" stroke-width="1.5" stroke-linecap="round" stroke-linejoin="round"/>
    </marker>
  </defs>
  <path d="M180 600 L640 600 Q680 600 680 560 L680 80 Q680 40 640 40 L360 40 Q320 40 300 80 L200 300 Q180 340 180 380 Z" fill="#fff8ea" opacity="0.8"/>
  <line x1="240" y1="150" x2="660" y2="150" stroke="#D4B96A" stroke-width="0.7" opacity="0.4"/>
  <line x1="240" y1="210" x2="660" y2="210" stroke="#D4B96A" stroke-width="0.7" opacity="0.35"/>
  <line x1="220" y1="270" x2="660" y2="270" stroke="#D4B96A" stroke-width="0.7" opacity="0.3"/>
  <line x1="200" y1="330" x2="660" y2="330" stroke="#D4B96A" stroke-width="0.7" opacity="0.28"/>
  <line x1="190" y1="390" x2="660" y2="390" stroke="#D4B96A" stroke-width="0.7" opacity="0.25"/>
  <line x1="185" y1="450" x2="660" y2="450" stroke="#D4B96A" stroke-width="0.7" opacity="0.22"/>
  <line x1="183" y1="510" x2="660" y2="510" stroke="#D4B96A" stroke-width="0.7" opacity="0.2"/>
  <line x1="300" y1="60" x2="300" y2="590" stroke="#D4B96A" stroke-width="0.7" opacity="0.35"/>
  <line x1="360" y1="50" x2="360" y2="590" stroke="#D4B96A" stroke-width="0.7" opacity="0.32"/>
  <line x1="420" y1="45" x2="420" y2="590" stroke="#D4B96A" stroke-width="0.7" opacity="0.3"/>
  <line x1="480" y1="42" x2="480" y2="590" stroke="#D4B96A" stroke-width="0.7" opacity="0.28"/>
  <line x1="540" y1="40" x2="540" y2="590" stroke="#D4B96A" stroke-width="0.7" opacity="0.25"/>
  <line x1="600" y1="40" x2="600" y2="590" stroke="#D4B96A" stroke-width="0.7" opacity="0.22"/>
  <path d="M310 540 L360 450 L480 390 L560 300 L620 210" fill="none" stroke="#9A8210" stroke-width="1.5" opacity="0.35" stroke-dasharray="5 4" marker-end="url(#rt)"/>
  <path d="M220 480 L300 420 L420 330 L540 270 L640 200" fill="none" stroke="#C4A44A" stroke-width="1.2" opacity="0.3" stroke-dasharray="4 5" marker-end="url(#rt)"/>
  <path d="M250 560 L360 510 L480 480 L600 390 L650 300" fill="none" stroke="#9A8210" stroke-width="0.9" opacity="0.18" stroke-dasharray="3 6"/>
  <g transform="translate(310, 540)" opacity="0.6">
    <path d="M0 -16 Q8 -16 8 -8 Q8 0 0 8 Q-8 0 -8 -8 Q-8 -16 0 -16 Z" fill="#9A8210" opacity="0.75"/>
    <circle cx="0" cy="-8" r="4" fill="#fff8ea" opacity="0.95"/>
  </g>
  <g transform="translate(480, 390)" opacity="0.55">
    <path d="M0 -16 Q8 -16 8 -8 Q8 0 0 8 Q-8 0 -8 -8 Q-8 -16 0 -16 Z" fill="#9A8210" opacity="0.72"/>
    <circle cx="0" cy="-8" r="4" fill="#fff8ea" opacity="0.95"/>
  </g>
  <g transform="translate(620, 210)" opacity="0.48">
    <path d="M0 -14 Q7 -14 7 -7 Q7 0 0 7 Q-7 0 -7 -7 Q-7 -14 0 -14 Z" fill="#9A8210" opacity="0.65"/>
    <circle cx="0" cy="-7" r="3.5" fill="#fff8ea" opacity="0.95"/>
  </g>
  <g transform="translate(220, 480)" opacity="0.48">
    <path d="M0 -13 Q6 -13 6 -6.5 Q6 0 0 6 Q-6 0 -6 -6.5 Q-6 -13 0 -13 Z" fill="#B8962E" opacity="0.62"/>
    <circle cx="0" cy="-6.5" r="3" fill="#fff8ea" opacity="0.95"/>
  </g>
  <g transform="translate(540, 270)" opacity="0.42">
    <path d="M0 -12 Q5.5 -12 5.5 -6 Q5.5 0 0 5.5 Q-5.5 0 -5.5 -6 Q-5.5 -12 0 -12 Z" fill="#B8962E" opacity="0.58"/>
    <circle cx="0" cy="-6" r="2.8" fill="#fff8ea" opacity="0.95"/>
  </g>
  <g transform="translate(420, 90)" opacity="0.38">
    <rect x="-14" y="-12" width="28" height="24" rx="3" fill="none" stroke="#9A8210" stroke-width="1"/>
    <line x1="-14" y1="-4" x2="14" y2="-4" stroke="#9A8210" stroke-width="0.8"/>
    <rect x="-6" y="-12" width="12" height="4" rx="2" fill="#9A8210" opacity="0.5"/>
  </g>
  <g transform="translate(580, 160)" opacity="0.32">
    <rect x="-12" y="-10" width="24" height="20" rx="3" fill="none" stroke="#9A8210" stroke-width="0.9"/>
    <line x1="-12" y1="-3" x2="12" y2="-3" stroke="#9A8210" stroke-width="0.7"/>
    <rect x="-5" y="-10" width="10" height="3.5" rx="1.5" fill="#9A8210" opacity="0.45"/>
  </g>
  <g transform="translate(350, 300)" opacity="0.28">
    <rect x="-11" y="-9" width="22" height="18" rx="2.5" fill="none" stroke="#B8962E" stroke-width="0.8"/>
    <line x1="-11" y1="-3" x2="11" y2="-3" stroke="#B8962E" stroke-width="0.7"/>
    <rect x="-4.5" y="-9" width="9" height="3" rx="1.5" fill="#B8962E" opacity="0.4"/>
  </g>
  <g transform="translate(500, 480)" opacity="0.24">
    <rect x="-10" y="-8" width="20" height="16" rx="2" fill="none" stroke="#C4A44A" stroke-width="0.7"/>
    <line x1="-10" y1="-2.5" x2="10" y2="-2.5" stroke="#C4A44A" stroke-width="0.6"/>
    <rect x="-4" y="-8" width="8" height="3" rx="1.5" fill="#C4A44A" opacity="0.35"/>
  </g>
  <circle cx="360" cy="150" r="3" fill="none" stroke="#9A8210" stroke-width="0.8" opacity="0.32"/>
  <circle cx="420" cy="210" r="2.5" fill="#9A8210" opacity="0.25"/>
  <circle cx="480" cy="270" r="3" fill="none" stroke="#C4A44A" stroke-width="0.8" opacity="0.3"/>
  <circle cx="540" cy="330" r="2.5" fill="#C4A44A" opacity="0.22"/>
  <circle cx="600" cy="390" r="3" fill="none" stroke="#9A8210" stroke-width="0.7" opacity="0.28"/>
  <circle cx="300" cy="390" r="2" fill="#9A8210" opacity="0.22"/>
  <circle cx="420" cy="450" r="2.5" fill="#C4A44A" opacity="0.24"/>
  <circle cx="600" cy="510" r="2" fill="#9A8210" opacity="0.2"/>
  <g opacity="0.22">
    <line x1="420" y1="90" x2="480" y2="130" stroke="#9A8210" stroke-width="0.6"/>
    <line x1="480" y1="130" x2="540" y2="110" stroke="#9A8210" stroke-width="0.6"/>
    <line x1="540" y1="110" x2="580" y2="160" stroke="#9A8210" stroke-width="0.6"/>
    <circle cx="480" cy="130" r="2" fill="#9A8210"/>
    <circle cx="540" cy="110" r="2" fill="#9A8210"/>
  </g>
  <g transform="translate(640, 480)" opacity="0.3">
    <circle cx="0" cy="0" r="22" fill="none" stroke="#D4B96A" stroke-width="0.8"/>
    <circle cx="0" cy="0" r="14" fill="none" stroke="#9A8210" stroke-width="0.7" stroke-dasharray="3 3"/>
    <circle cx="0" cy="0" r="6" fill="none" stroke="#9A8210" stroke-width="0.7"/>
    <circle cx="0" cy="0" r="2" fill="#9A8210" opacity="0.65"/>
    <line x1="-22" y1="0" x2="22" y2="0" stroke="#D4B96A" stroke-width="0.5" opacity="0.5"/>
    <line x1="0" y1="-22" x2="0" y2="22" stroke="#D4B96A" stroke-width="0.5" opacity="0.5"/>
  </g>
  <g transform="translate(230, 200)" opacity="0.24">
    <circle cx="0" cy="0" r="18" fill="none" stroke="#D4B96A" stroke-width="0.7"/>
    <circle cx="0" cy="0" r="11" fill="none" stroke="#C4A44A" stroke-width="0.6" stroke-dasharray="2 3"/>
    <circle cx="0" cy="0" r="4" fill="none" stroke="#C4A44A" stroke-width="0.6"/>
    <circle cx="0" cy="0" r="1.5" fill="#C4A44A" opacity="0.55"/>
  </g>
  <rect x="270" y="555" width="50" height="12" rx="2.5" fill="none" stroke="#D4B96A" stroke-width="0.6" opacity="0.35"/>
  <rect x="278" y="560" width="16" height="5" rx="1" fill="#9A8210" opacity="0.28"/>
  <rect x="460" y="555" width="44" height="12" rx="2.5" fill="none" stroke="#D4B96A" stroke-width="0.6" opacity="0.3"/>
  <rect x="467" y="560" width="20" height="5" rx="1" fill="#C4A44A" opacity="0.28"/>
</svg>
